<svg width="96" height="97" viewBox="0 0 96 97" fill="none" xmlns="http://www.w3.org/2000/svg">
<path d="M48 97C21.4903 97 0 75.2858 0 48.5C0 21.7142 21.4903 0 48 0C74.5097 0 96 21.7142 96 48.5C96 75.2858 74.5097 97 48 97Z" fill="#272727"/>
<path d="M47.5435 75.3756C36.7089 75.4216 26.1741 78.2028 17.4654 83.3163C26.0558 90.4959 36.8518 94.4303 48.0001 94.4442C58.9705 94.4296 69.6049 90.6185 78.1326 83.6454C69.3353 78.332 58.6001 75.4297 47.5435 75.3756Z" fill="white"/>
<path d="M24.8253 54.788C29.1658 78.0394 42.1421 91.3225 65.8462 87.6771C58.6226 74.3888 65.7079 67.8644 70.342 59.2354L56.9728 38.5187C49.6693 46.5902 44.3014 55.0802 24.8253 54.788V54.788Z" fill="#272727"/>
<path d="M26.2246 54.5369C31.011 75.9265 41.4774 89.1489 63.369 85.9429C56.5896 73.4716 64.5935 66.8093 68.9427 58.7109L57.9586 53.1445C51.1043 60.7198 44.5032 54.8111 26.2246 54.5369V54.5369Z" fill="#FF652F"/>
<path d="M29.1929 55.7866C35.1302 76.3041 41.2302 86.0245 60.648 84.6932C53.8686 72.2219 62.6146 65.3096 66.9638 57.2112L56.1962 55.0312C49.3419 62.6065 47.4716 56.0608 29.1929 55.7866V55.7866Z" fill="#272727"/>
<path d="M30.5922 56.0517C36.9479 76.0759 40.7677 84.0365 59.2487 83.8095C52.4693 71.3383 61.4777 64.8678 65.8269 56.7694L56.9332 54.2848C50.0788 61.8601 48.8709 56.3259 30.5922 56.0517Z" fill="url(#paint0_linear)"/>
<path d="M24.1096 54.7853C44.6596 67.4615 65.4206 67.8574 85.5654 64.3422C50.9025 39.9154 42.5359 51.5092 24.1096 54.7853Z" fill="#272727"/>
<path d="M26.2246 54.5369C45.5793 65.8756 65.3209 65.8775 85.1369 63.6984C51.9086 40.2825 43.8883 51.3965 26.2246 54.5369Z" fill="#FF652F"/>
<path d="M35.5797 68.7346C35.411 68.73 35.2526 68.7348 35.1004 68.745C38.6964 77.1011 42.8789 81.6651 51.0795 83.2081C51.4336 81.4542 50.9392 79.1526 48.9739 76.2975C46.1059 72.1311 39.1176 68.832 35.5797 68.7346V68.7346Z" fill="url(#paint1_linear)"/>
<path d="M64.7022 14.3418C59.9213 14.342 55.3363 16.5584 51.9557 20.5037C48.5751 24.449 46.676 29.8 46.676 35.3794C46.6837 39.0794 47.5274 42.7115 49.1221 45.9094H80.2889C81.8813 42.7108 82.723 39.0787 82.7288 35.3794C82.7288 32.6167 82.2625 29.8811 81.3566 27.3287C80.4507 24.7763 79.1229 22.4571 77.4489 20.5036C75.775 18.5501 73.7878 17.0004 71.6007 15.9432C69.4136 14.886 67.0695 14.3418 64.7022 14.3418Z" fill="#272727"/>
<path d="M62.9531 14.6955C60.5859 14.6955 58.2418 15.2396 56.0547 16.2968C53.8676 17.3541 51.8803 18.9037 50.2064 20.8572C48.5325 22.8107 47.2046 25.1299 46.2987 27.6823C45.3928 30.2347 44.9265 32.9703 44.9265 35.733C44.9338 39.295 45.716 42.7966 47.1997 45.9094H78.7251C80.2024 42.7946 80.9781 39.2931 80.9798 35.733C80.9798 32.9703 80.5135 30.2347 79.6076 27.6823C78.7017 25.1299 77.3738 22.8107 75.6999 20.8572C74.026 18.9037 72.0387 17.3541 69.8516 16.2968C67.6645 15.2396 65.3204 14.6955 62.9531 14.6955V14.6955Z" fill="white"/>
<path d="M64.0483 41.4115C67.8735 41.4115 70.9744 38.2782 70.9744 34.4132C70.9744 30.5481 67.8735 27.4149 64.0483 27.4149C60.2231 27.4149 57.1221 30.5481 57.1221 34.4132C57.1221 38.2782 60.2231 41.4115 64.0483 41.4115Z" fill="#272727"/>
<path d="M34.5425 14.3418C29.7616 14.342 25.1766 16.5584 21.796 20.5037C18.4155 24.449 16.5163 29.8 16.5163 35.3794C16.524 39.0794 17.3678 42.7115 18.9624 45.9094H50.1292C51.7217 42.7108 52.5633 39.0787 52.5692 35.3794C52.5692 32.6167 52.1029 29.8811 51.197 27.3287C50.291 24.7763 48.9632 22.4571 47.2893 20.5036C45.6153 18.5501 43.6281 17.0004 41.441 15.9432C39.2539 14.886 36.9098 14.3418 34.5425 14.3418V14.3418Z" fill="#272727"/>
<path d="M32.7934 14.6955C30.4262 14.6955 28.082 15.2396 25.895 16.2968C23.7079 17.3541 21.7206 18.9037 20.0467 20.8572C18.3728 22.8107 17.0449 25.1299 16.139 27.6823C15.2331 30.2347 14.7668 32.9703 14.7668 35.733C14.7741 39.295 15.5563 42.7966 17.04 45.9094H48.5654C50.0427 42.7946 50.8184 39.2931 50.8201 35.733C50.8201 32.9703 50.3538 30.2347 49.4479 27.6823C48.542 25.1299 47.2141 22.8107 45.5402 20.8572C43.8663 18.9037 41.879 17.3541 39.6919 16.2968C37.5048 15.2396 35.1607 14.6955 32.7934 14.6955V14.6955Z" fill="white"/>
<path d="M33.8886 41.4115C37.7138 41.4115 40.8147 38.2782 40.8147 34.4132C40.8147 30.5481 37.7138 27.4149 33.8886 27.4149C30.0634 27.4149 26.9625 30.5481 26.9625 34.4132C26.9625 38.2782 30.0634 41.4115 33.8886 41.4115Z" fill="#272727"/>
<defs>
<linearGradient id="paint0_linear" x1="55.2547" y1="80.7885" x2="25.9997" y2="52.1074" gradientUnits="userSpaceOnUse">
<stop stop-color="#6F0102"/>
<stop offset="1" stop-color="#6F0102" stop-opacity="0"/>
</linearGradient>
<linearGradient id="paint1_linear" x1="46.8292" y1="85.0503" x2="34.2227" y2="71.3953" gradientUnits="userSpaceOnUse">
<stop stop-color="#E33A4B"/>
<stop offset="1" stop-color="#D22436" stop-opacity="0.54902"/>
</linearGradient>
</defs>
</svg>
